<svg xmlns="http://www.w3.org/2000/svg" xmlns:xlink="http://www.w3.org/1999/xlink" width="500" zoomAndPan="magnify" viewBox="0 0 375 374.999991" height="500" preserveAspectRatio="xMidYMid meet" version="1.0"><defs><g/><clipPath id="6e30d71349"><rect x="0" width="164" y="0" height="208"/></clipPath><clipPath id="f64e4cf303"><rect x="0" width="125" y="0" height="208"/></clipPath><clipPath id="bd42c5e18f"><path d="M 195.097656 80.476562 L 197.347656 80.476562 L 197.347656 161.066406 L 195.097656 161.066406 Z M 195.097656 204.453125 L 197.347656 204.453125 L 197.347656 285.039062 L 195.097656 285.039062 Z M 195.097656 204.453125 " clip-rule="nonzero"/></clipPath></defs><g transform="matrix(1, 0, 0, 1, 12, 82)"><g clip-path="url(#6e30d71349)"><g fill="#2b2b2b" fill-opacity="1"><g transform="translate(0.662511, 159.477209)"><g><path d="M 84.296875 2 C 69.441406 2 56.460938 -0.941406 45.359375 -6.828125 C 34.253906 -12.710938 25.65625 -20.972656 19.5625 -31.609375 C 13.476562 -42.242188 10.4375 -54.789062 10.4375 -69.25 C 10.4375 -79.28125 12.207031 -88.707031 15.75 -97.53125 C 19.300781 -106.363281 24.320312 -114.09375 30.8125 -120.71875 C 37.300781 -127.34375 45.023438 -132.523438 53.984375 -136.265625 C 62.953125 -140.015625 72.789062 -141.890625 83.5 -141.890625 C 89.519531 -141.890625 95.4375 -141.390625 101.25 -140.390625 C 107.070312 -139.390625 112.390625 -138.082031 117.203125 -136.46875 C 122.023438 -134.863281 125.707031 -133.191406 128.25 -131.453125 L 129.046875 -107.78125 L 127.046875 -107.375 C 124.640625 -113.125 121.023438 -118.34375 116.203125 -123.03125 C 111.390625 -127.71875 105.738281 -131.429688 99.25 -134.171875 C 92.757812 -136.910156 85.566406 -138.28125 77.671875 -138.28125 C 68.035156 -138.28125 59.40625 -136.101562 51.78125 -131.75 C 44.15625 -127.40625 38.097656 -121.019531 33.609375 -112.59375 C 29.128906 -104.164062 26.820312 -93.796875 26.6875 -81.484375 C 26.5625 -71.984375 27.898438 -62.550781 30.703125 -53.1875 C 33.515625 -43.820312 37.695312 -35.257812 43.25 -27.5 C 48.800781 -19.738281 55.523438 -13.546875 63.421875 -8.921875 C 71.316406 -4.304688 80.347656 -2 90.515625 -2 C 98.003906 -2 104.757812 -3.769531 110.78125 -7.3125 C 116.800781 -10.863281 121.085938 -15.117188 123.640625 -20.078125 L 123.4375 -40.546875 C 123.4375 -46.828125 122.800781 -51.375 121.53125 -54.1875 C 120.257812 -57 117.484375 -58.941406 113.203125 -60.015625 L 113.203125 -62.421875 L 139.484375 -62.421875 L 139.484375 -24.6875 C 135.609375 -19.332031 130.625 -14.644531 124.53125 -10.625 C 118.445312 -6.613281 111.925781 -3.503906 104.96875 -1.296875 C 98.007812 0.898438 91.117188 2 84.296875 2 Z M 84.296875 2 "/></g></g></g></g></g><g transform="matrix(1, 0, 0, 1, 230, 82)"><g clip-path="url(#f64e4cf303)"><g fill="#2b2b2b" fill-opacity="1"><g transform="translate(0.524648, 159.477209)"><g><path d="M 10.234375 0 L 10.234375 -2.609375 C 13.316406 -3.546875 15.425781 -5.550781 16.5625 -8.625 C 17.695312 -11.707031 18.265625 -17.328125 18.265625 -25.484375 L 18.265625 -115 C 18.265625 -123.300781 17.695312 -128.957031 16.5625 -131.96875 C 15.425781 -134.976562 13.316406 -136.953125 10.234375 -137.890625 L 10.234375 -140.5 L 50.984375 -140.5 C 64.898438 -140.5 75.835938 -138.554688 83.796875 -134.671875 C 91.753906 -130.785156 97.40625 -125.832031 100.75 -119.8125 C 104.09375 -113.789062 105.765625 -107.503906 105.765625 -100.953125 C 105.765625 -87.578125 100.976562 -76.671875 91.40625 -68.234375 C 81.84375 -59.804688 67.695312 -55.59375 48.96875 -55.59375 L 34.71875 -55.59375 L 34.71875 -25.484375 C 34.71875 -17.328125 35.285156 -11.707031 36.421875 -8.625 C 37.566406 -5.550781 39.675781 -3.546875 42.75 -2.609375 L 42.75 0 Z M 34.71875 -58.609375 L 48.5625 -58.609375 C 61.414062 -58.609375 71.21875 -61.953125 77.96875 -68.640625 C 84.726562 -75.328125 88.109375 -84.5625 88.109375 -96.34375 C 88.109375 -103.5625 86.601562 -110.28125 83.59375 -116.5 C 80.582031 -122.726562 75.796875 -127.78125 69.234375 -131.65625 C 62.679688 -135.539062 53.988281 -137.484375 43.15625 -137.484375 C 41.8125 -137.484375 40.367188 -137.445312 38.828125 -137.375 C 37.296875 -137.3125 35.925781 -137.210938 34.71875 -137.078125 Z M 34.71875 -58.609375 "/></g></g></g></g></g><g clip-path="url(#bd42c5e18f)"><path stroke-linecap="butt" transform="matrix(0, -0.75, 0.75, 0, 166.226245, 285.040205)" fill="none" stroke-linejoin="miter" d="M 0.00152371 39.995218 L 272.751542 39.995218 " stroke="#000000" stroke-width="3" stroke-opacity="1" stroke-miterlimit="4"/></g></svg>